<?xml version="1.0" encoding="utf-8"?>
<!-- Generator: Adobe Illustrator 23.1.1, SVG Export Plug-In . SVG Version: 6.00 Build 0)  -->
<svg version="1.1" id="Layer_1" xmlns="http://www.w3.org/2000/svg" xmlns:xlink="http://www.w3.org/1999/xlink" x="0px" y="0px"
	 viewBox="0 0 180 50" style="enable-background:new 0 0 180 50;" xml:space="preserve">
<g>
	<g>
		<path d="M175.1,35c-0.3-3.9-2.9-2.3-4.9-2.1c-0.1,0-0.2,0.1-0.2,0.1c-1.9-1.5-4-2.8-5.5-4.7c-0.5-0.6-1-1.4-1.7-2
			c-0.4,0-0.8,0-1.3,0c-1.5,1.5-3,1.9-5.2,1.3c-1.8-0.5-3.8-0.1-6-0.1c1-1.6,2.5-0.9,3.8-1.5c-1.9-1.7-4.4-1.3-6.4-2.3l0,0l0.1-0.1
			l0,0c1.9-1,4.1-0.6,6.1-1c1.4,0.3,2.8,0.8,4.2,0.4c0.4,0.1,0.7,0.1,1.1,0.2c0.9,1,2.7,1.3,2.4,3.2c0.4,0,0.8,0,1.3,0
			c0-0.5,0.1-0.9,0.1-1.4l0,0c0.8-0.1,0.9-0.6,0.9-1.2c1.6,1.5,4,1.5,5.4,3.3c0.2,0.3,0.5,0.5,0.9,0.3c1.5-0.8,2.1,0.2,2.9,1.3
			c0.6,0.9,1.5,1.6,2.6,0.3c-0.1-3.5-1.6-6.5-3.7-9.2c-1.3-1-3.6,0.5-4.4-1.7c-0.3,0-0.6-0.1-0.8-0.1c-0.2,0.6-0.6,0.9-1.2,0.7
			c-7.8-2.3-15.9-2.8-23.9-3.9c-7-0.9-14.1-1.5-21.2-1.2c-8.8,0.2-17.6,0.4-26.3,1.2c-10.1,0.9-20.1,2.1-30,3.9
			c-3.9,0.7-8.1,0.8-11.8,2c-3.6,1.2-7.2,0.9-10.7,1.8c-1.1,0.2-2.1,0.4-3.1,0.6c-0.8,1.4-4,2.5-5.2,1.8c-0.2-0.1,0-0.6-0.1-1
			c-6.8,1-13.5,2.5-20.4,2.1C9.6,26,6.8,27,4.8,29.5c-0.3,0.3-1,0.5-0.6,1.2c-0.1,0.2-0.1,0.3,0,0.5c0,0.7-0.1,1.4-0.1,2.1
			c0.2,3.1,2.3,5.8,2.4,8.9c1.7,0.5,2.8,1.9,4.2,2.8c1.2,0.2,2.3,0.9,3.6,0.6c5.4-1.1,10.8-2.4,16.4-2.9c2.2-0.6,4.7-0.1,6.8-1.2
			c0.7,0.2,1.2,0,1.4-0.7c2.3-0.2,4.3-1.5,6.7-1.4c1.3-0.1,2.6,0.2,3.7-0.8c-0.3-0.1-0.7-0.2-1-0.4c0.3,0.1,0.7,0.3,1,0.4
			c0.7,0,1.3-0.1,2-0.1c2.9,0.1,5.7-0.9,8.5-1.4c0.3-0.1,0.7-0.1,1-0.2c1.1-0.2,2.1-0.4,3.2-0.6c2.1-0.4,4.2-0.7,6.3-1.1
			c0.6,0.2,1.1,0.1,1.6-0.3c0.5,0,1-0.1,1.6-0.2c2-0.3,4-0.2,5.8-1.1c0.4,0,0.7,0,1,0c2.2,0.1,4.2-0.5,6.3-0.9
			c0,0.1-0.1,0.2-0.1,0.3c0.9-0.3,1.8-0.5,2.8-0.2c0-0.1-0.1-0.2-0.1-0.3c0.4,0.1,0.8,0.2,1.1,0.2c0-0.2,0-0.3,0-0.5
			c0.5,0,1-0.1,1.5-0.1c0.4,0,0.7,0.1,1.1,0.1c0.4,0,0.7,0,1-0.1c0.1-0.1,0.1-0.3,0.2-0.4c0.4,0,0.9-0.1,1.4-0.1l0,0
			c0.5-0.1,1.1-0.2,1.6-0.3c0.7,0,1.4,0.1,2,0.1c0.9-0.2,1.8-0.3,2.7-0.5c0.3-0.1,0.6-0.2,0.9-0.3c0.8,0,1.5,0,2.3,0
			c0.4-0.6,1-0.6,1.6-0.3c0.5-0.1,1-0.2,1.5-0.4c0.5-0.2,1.1-0.3,1.6-0.5c0.2,0.1,0.4,0.3,0.5,0.4c0.3,0,0.7,0,1,0
			c0-0.1,0-0.3,0-0.4c0.5,0,1.1,0,1.6,0l0,0c0.4,0,0.7,0,1,0c1.1,0.5,2.1,0.4,3.2,0.1l0,0c0.3,0,0.6,0,1,0l0,0c0.4,0,0.7,0,1.1-0.1
			c2.1,0.9,4.4-0.2,6.5,1.1c-3.6,1.4-7.4,1-11.2,1.2c0,0.3-0.1,0.5-0.1,0.8c3.7,0.1,7.4,0.2,11,0.4c3.7-0.6,7.4-1.5,11.2-1
			c2.4,0.3,4.9,0.1,7.3-0.8l0,0c0.7,0,1.4,0.1,2.1,0.1c0.1-0.3,0.1-0.9,0.3-1.2c-0.2,0.3-0.2,0.9-0.3,1.2c0.9,0.8,2.1,1,3.2,1.3
			c0.2,0.1,0.3,0.2,0.5,0.2c0.8,1,1.9,0.6,2.9,0.9c4.2,1,8.6,1.6,12.7,3.4l0,0c-0.2,1.4-1.3,0.7-2.1,0.9c-0.8,0.2-2-0.5-2.3,1
			c3.4,0.1,6.6,1.7,10.8,0.8c-2.2-1.1-4.1-1.4-5.4-2.9c0.9-1.2,1.8-3.2,3.4-2.3c1.9,1.1,4.2,0.5,5.9,1.7c0.1-0.3,0.1-0.6,0.2-0.9
			C175.7,35.5,175.1,35.4,175.1,35z M27.7,39.4L27.7,39.4c-0.1,0-0.2,0-0.2,0C27.5,39.4,27.6,39.4,27.7,39.4z M89.9,31.9
			c0.1,0,0.2,0.1,0.3,0.2C90.2,32,90,32,89.9,31.9z M117.2,28.6c0.1,0.1,0.1,0.2,0.1,0.4C117.3,28.8,117.2,28.7,117.2,28.6z
			 M118.4,29.4c0-0.1,0-0.2,0-0.3C118.4,29.2,118.4,29.3,118.4,29.4z M118.5,28.6c0-0.3,0.1-0.6,0.1-0.9
			C118.5,28,118.5,28.3,118.5,28.6z M147.4,22.3C147.4,22.3,147.4,22.3,147.4,22.3c-0.2,0.1-0.3,0.2-0.5,0.3c-1.2,0-2-1.2-3.3-1.1
			c1.1-0.6,2.3-0.5,3.4-0.4C147.8,21.2,148,21.7,147.4,22.3z"/>
		<path d="M135.1,32.8c-0.7,0-1.2,0.1-1.3,0.9c2.9-0.2,5.5,1.7,8.4,1c1.6-0.2,3.2-0.3,4.9-0.5c-0.1,1-1.6,0.2-1.5,1.2
			c0.8,0.2,1.6,0.3,2.4,0.5c0.8-0.2,1.4,0.1,1.8,0.8c0.5,0,0.9,0.1,1.4,0.1c0.5-0.5,1.6-0.1,1.9-1.3c-1.9-0.7-3.6-1.7-5.6-2
			C143.4,33.2,139.2,33.1,135.1,32.8z"/>
		<path d="M114.8,31.9c-0.9-0.1-1.9-0.2-2.8-0.3c-0.9,0.2-1.9,0.4-2.8,0.6c0.1,0.2,0.1,0.4,0.2,0.6c1.8,0,3.5,0,5.3,0
			C114.8,32.4,114.8,32.1,114.8,31.9z"/>
	</g>
	<g>
		<path d="M8.4,18.8c0.3,1.6,1.8,2.7,1.8,4.4c1.2,2.2,2.7,2.9,5.3,2.3c3.2-0.7,6.5-1,9.8-0.8c1.4-0.6,2.9-0.5,4.3-0.5
			c0.3,0,0.7,0,1.1,0c1.6-0.4,3.2-0.6,4.8-0.5c1.2-0.2,2.5-0.5,3.7-0.2c0.8,0,1.5-0.1,2.2-0.6c1-0.6,2.1-0.4,2.9,0.3
			c0.9,0.9-0.4,1.5-0.6,2.3c1.1,0,2.1-0.1,3.2-0.1c2.2-0.4,4.5-0.8,6.7-1.2c0.1-0.1,0.1-0.2,0.2-0.2c6.2-0.7,11.5-4.4,17.8-4.7
			c2.4-0.1,4.6-1.4,7.2-1.2c3.1,0.2,6.3,0.1,9.4,0.1c2,0,1.5,0.8,0.7,1.8c6.9-0.2,13.7-2.6,20.7-1.4c1,0.2,2,0.2,2.7-0.7
			c4.6-0.1,9.1,1.2,13.6-0.4c0.8-0.3,1.5,0.3,2.3,0.3c0.4,0,0.7,0,1.1,0.1c0.3,0.1,0.7,0.2,1,0.4l0,0c0.3,0,0.7,0.1,1,0.1
			c0.1-0.1,0.2-0.2,0.3-0.2c-0.1,0-0.2,0.1-0.3,0.2c0.4,0.1,0.7,0.2,1.1,0.2c2.7,1.6,5.8,1.7,8.7,2.5c0.8,0,1.6-0.2,2.2,0.3l0.1,0.2
			c1.1,0.7,1.1,0.7-0.2,1.5c5.8,1.3,11.5,1.9,17,3.8c0.6-0.3,1-1.7,1.8-0.2c0.5,0.9,1.4,0.8,2.2,0.7c1.3,0,2.4,1.2,4.1,0.6
			c-1.3-1.3-2.7-0.9-4-1c-0.1-1,0.2-1.7,1.5-1.5c0.9,0.1,1.9,0.2,2.6-0.8c-0.5-0.6-0.9-1.3-1.4-1.9c-0.5-0.6-1.9-0.7-1.4-1.6
			c0.6-1.1,1.3,0.5,1.8,0.3c1.2-0.5,2,0.4,3,0.7c0.3-1.7-0.5-3.1-0.6-4.5c-0.1-1.4-1.2-2.7-1.4-4.2c-0.1-0.7-0.5-1.6-1.4-1.8
			c-2.2-0.7-4.4-1.6-6.8-1.5c-0.4,0-0.7-0.1-1.1-0.2c-0.6-0.5-1.3-0.8-2.1-0.7c-0.4,0-0.7-0.1-1-0.1c-3-1.4-6.2-0.7-9.3-1.3
			c-4.5-0.8-9.1-2-13.7-1.5c-0.4,0-0.7,0-1.1,0c-0.9-0.1-1.8-0.2-2.6-0.3c-0.3,0-0.7,0-1-0.1c-1.2-0.3-2.5-0.4-3.7,0
			c-1.9-0.2-3.9-0.6-5.8-0.4c-0.4-0.2-0.8-0.2-1.1,0.2c-1.9-0.2-3.9-0.5-5.8-0.3c-1.1-0.2-2.1-0.3-3.2-0.1c-1.8-0.2-3.5-0.5-5.3-0.1
			c-0.9-0.2-1.7-0.4-2.6-0.2c-1.1,0-2.1-0.1-3.2-0.1c-0.4,0-0.7,0-1.1,0c-0.5,0-1,0-1.6,0c-0.4,0-0.7,0-1.1,0
			c-2.3-0.2-4.5,0-6.7,0.3c-0.4-1.1-1.3-1.1-2.2-0.9c-1.4,0-2.8,0-4.2-0.1c-0.8-0.2-1.4,0-2.1,0.3C75.3,5,71.7,5.3,68.2,5.6
			c-0.4-0.2-0.7-0.2-1.1,0c-1.6,0.1-3.2,0.1-4.8,0.2c-0.7-0.2-1.4-0.3-2.1,0.1C59.5,6,58.7,6.1,58,6.2c-0.3,0-0.7,0-1.1,0
			c-0.5,0-1.1,0-1.6,0C54.5,6,53.6,6,52.7,6.3c-0.4,0.1-0.7,0.1-1.1,0.2c-0.4,0.2-0.8,0.4-1.2,0.6c0.4-0.2,0.8-0.4,1.2-0.6
			c-1.3,0-2.6,0-3.8,0C47,6.7,46.2,7,45.5,6.9C40,6,34.5,7.1,29,7.1c-5.3-0.1-10.7,1-16-0.5c-1.1-0.3-1.6,0.5-2.2,1.4
			c-1,1.4-1.4,3.7-3.7,3.6c-1.8-0.1-1.7,1-1.7,2.1c0.3,0.1,0.6,0.2,0.9,0.2c0.1-0.1,0.3-0.1,0.4-0.1c0.7-0.6,1.6-1.1,2.5-0.6
			c0.7,0.4,0.3,1,0,1.5C9,16.1,8.7,17.5,8.4,18.8z M168.3,18.9c0.1-0.1,0.5-0.2,0.7-0.1c0.2,0,0.6,0.1,0.3,0.6
			c-0.2,0-0.6,0.1-0.9,0.2C168.4,19.4,168.2,19.1,168.3,18.9z M127.2,14.2L127.2,14.2c0,0.2,0,0.3,0,0.5c-3.5-0.3-7-0.7-10.5-1
			C120.3,12.1,123.7,14.4,127.2,14.2z"/>
		<path d="M101.3,22.6c-3.4-1.4-6.9-1.2-10.4-0.2c0,0.2-0.1,0.3-0.1,0.5c11.2,1.2,18.5,0.9,20.6-0.9c-2.9-0.7-5.5,0.1-8.1,0.4
			C102.7,22.5,102.1,22.9,101.3,22.6z"/>
		<path d="M160.4,27.7c-1.8-0.3-3.7-0.9-5.3,0.5c2.4,0.6,4.7,1.5,7.2,1.5C162.1,28.3,160.9,28.3,160.4,27.7z"/>
		<path d="M81.8,21.8c0.6-0.3,1.2-0.5,1.8-0.8c-2.9-1.6-5.6,0.1-8.4,0.3C77.4,22.5,79.7,21.3,81.8,21.8z"/>
	</g>
</g>
</svg>
