<?xml version="1.0" encoding="utf-8"?>
<!-- Generator: Adobe Illustrator 23.0.6, SVG Export Plug-In . SVG Version: 6.00 Build 0)  -->
<svg version="1.1" id="Layer_1" xmlns="http://www.w3.org/2000/svg" xmlns:xlink="http://www.w3.org/1999/xlink" x="0px" y="0px"
	 viewBox="0 0 375 55" style="enable-background:new 0 0 375 55;" xml:space="preserve">
<style type="text/css">
	.st0{clip-path:url(#SVGID_2_);}
	.st1{fill:none;stroke:#D84598;stroke-width:0.5;stroke-miterlimit:10;}
</style>
<g>
	<defs>
		<rect id="SVGID_1_" y="2" width="374" height="53"/>
	</defs>
	<clipPath id="SVGID_2_">
		<use xlink:href="#SVGID_1_"  style="overflow:visible;"/>
	</clipPath>
	<g class="st0">
		<line class="st1" x1="-131.38" y1="10" x2="397.35" y2="10"/>
		<line class="st1" x1="-131.38" y1="47" x2="394.48" y2="47"/>
		<line class="st1" x1="-52.84" y1="20" x2="397.35" y2="20"/>
		<line class="st1" x1="-131.38" y1="14" x2="397.35" y2="14"/>
		<line class="st1" x1="-131.38" y1="30" x2="387.78" y2="30"/>
		<line class="st1" x1="189.62" y1="10.4" x2="189.62" y2="56"/>
		<line class="st1" x1="182" y1="9.76" x2="174.25" y2="54.64"/>
		<line class="st1" x1="173.7" y1="9.76" x2="150.71" y2="54.64"/>
		<line class="st1" x1="163.16" y1="9.76" x2="122.93" y2="54.64"/>
		<line class="st1" x1="148.79" y1="9.76" x2="91.32" y2="54.64"/>
		<line class="st1" x1="135.38" y1="9.76" x2="57.8" y2="54.64"/>
		<line class="st1" x1="121.01" y1="9.76" x2="26.19" y2="54.64"/>
		<line class="st1" x1="105.69" y1="9.76" x2="-3.51" y2="54.64"/>
		<line class="st1" x1="88.45" y1="9.76" x2="-46.61" y2="54.64"/>
		<line class="st1" x1="72.16" y1="9.76" x2="-101.21" y2="54.64"/>
		<line class="st1" x1="53.01" y1="9.76" x2="-156.76" y2="54.64"/>
		<line class="st1" x1="24.27" y1="9.76" x2="-185.5" y2="54.64"/>
		<line class="st1" x1="197" y1="9.76" x2="204.75" y2="54.64"/>
		<line class="st1" x1="205.3" y1="9.76" x2="228.29" y2="54.64"/>
		<line class="st1" x1="215.84" y1="9.76" x2="256.07" y2="54.64"/>
		<line class="st1" x1="230.21" y1="9.76" x2="287.68" y2="54.64"/>
		<line class="st1" x1="243.62" y1="9.76" x2="321.2" y2="54.64"/>
		<line class="st1" x1="257.99" y1="9.76" x2="352.81" y2="54.64"/>
		<line class="st1" x1="273.31" y1="9.76" x2="382.51" y2="54.64"/>
		<line class="st1" x1="290.55" y1="9.76" x2="425.61" y2="54.64"/>
		<line class="st1" x1="306.84" y1="9.76" x2="480.21" y2="54.64"/>
		<line class="st1" x1="325.99" y1="9.76" x2="535.76" y2="54.64"/>
		<line class="st1" x1="354.73" y1="9.76" x2="564.5" y2="54.64"/>
	</g>
</g>
</svg>
